<?xml version="1.0" encoding="UTF-8"?><svg xmlns="http://www.w3.org/2000/svg" viewBox="0 0 625.08 189.7"><defs><style>.d{opacity:.3;}.d,.e{fill:#fff;}.d,.e,.f{stroke:#1e2124;stroke-miterlimit:10;stroke-width:.5px;}.g{fill:#1e2124;}.f{fill:none;}</style></defs><g id="a"/><g id="b"><g id="c"><g><rect class="e" x=".25" y=".25" width="624.58" height="189.2"/><polygon class="d" points="421.59 178.9 403.31 189.45 221.76 189.45 203.49 178.9 276.2 136.92 282.53 133.27 294.78 126.19 303.61 121.1 306.75 119.28 308.24 118.42 312.54 115.94 312.7 116.03 318.33 119.28 321.72 121.24 349.04 137.02 421.59 178.9"/><g><polygon class="e" points="421.92 94.94 312.7 158 203.49 94.94 312.71 31.89 421.92 94.94"/><ellipse class="f" cx="249.48" cy="107.11" rx="9.63" ry="5.56"/><ellipse class="g" cx="228.41" cy="94.94" rx="9.63" ry="5.56"/><ellipse class="g" cx="270.56" cy="119.28" rx="9.63" ry="5.56"/><ellipse class="f" cx="291.63" cy="131.44" rx="9.63" ry="5.56"/><ellipse class="g" cx="312.7" cy="143.61" rx="9.63" ry="5.56"/><ellipse class="g" cx="270.56" cy="94.94" rx="9.63" ry="5.56"/><ellipse class="g" cx="312.7" cy="119.28" rx="9.63" ry="5.56"/><ellipse class="f" cx="312.71" cy="94.94" rx="9.63" ry="5.56"/><ellipse class="g" cx="354.85" cy="119.28" rx="9.63" ry="5.56"/><ellipse class="g" cx="333.78" cy="82.78" rx="9.63" ry="5.56"/><ellipse class="f" cx="354.85" cy="94.94" rx="9.63" ry="5.56"/><ellipse class="f" cx="333.78" cy="58.44" rx="9.63" ry="5.56"/><ellipse class="g" cx="375.93" cy="82.78" rx="9.63" ry="5.56"/><ellipse class="f" cx="291.63" cy="58.44" rx="9.63" ry="5.56"/><ellipse class="g" cx="270.56" cy="70.61" rx="9.63" ry="5.56"/><ellipse class="f" cx="249.48" cy="82.78" rx="9.63" ry="5.56"/><line class="f" x1="242.68" y1="86.71" x2="228.41" y2="94.94"/><line class="f" x1="270.56" y1="94.94" x2="228.41" y2="94.94"/><line class="f" x1="256.29" y1="103.18" x2="270.56" y2="94.94"/><line class="f" x1="312.7" y1="119.28" x2="258.62" y2="108.87"/><line class="f" x1="270.56" y1="119.28" x2="312.7" y2="119.28"/><line class="f" x1="312.7" y1="143.61" x2="312.7" y2="119.28"/><line class="f" x1="298.44" y1="127.51" x2="312.7" y2="119.28"/><line class="f" x1="256.29" y1="78.85" x2="270.56" y2="70.61"/><line class="f" x1="303.57" y1="93.19" x2="258.62" y2="84.54"/><line class="f" x1="270.56" y1="94.94" x2="303.08" y2="94.94"/><line class="f" x1="312.7" y1="119.28" x2="312.71" y2="100.5"/><line class="f" x1="354.85" y1="119.28" x2="312.7" y2="119.28"/><line class="f" x1="354.85" y1="119.28" x2="354.85" y2="100.5"/><line class="f" x1="333.78" y1="82.78" x2="354.85" y2="119.28"/><line class="f" x1="319.51" y1="91.01" x2="333.78" y2="82.78"/><line class="f" x1="270.56" y1="70.61" x2="284.82" y2="62.37"/><line class="f" x1="333.78" y1="82.78" x2="270.56" y2="70.61"/><line class="f" x1="322.33" y1="94.94" x2="345.23" y2="94.94"/><line class="f" x1="301.26" y1="58.44" x2="324.15" y2="58.44"/><line class="f" x1="333.78" y1="82.78" x2="333.78" y2="64"/><line class="f" x1="375.93" y1="82.78" x2="333.78" y2="82.78"/><line class="f" x1="361.66" y1="91.01" x2="375.93" y2="82.78"/><line class="f" x1="336.82" y1="63.72" x2="351.81" y2="89.67"/></g><polygon class="d" points="421.59 10.79 348.88 52.77 342.7 56.35 330.15 63.59 312.54 73.76 295.01 63.64 282.62 56.49 276.37 52.87 203.49 10.79 221.75 .25 403.33 .25 421.59 10.79"/></g></g></g></svg>